# xmcd CD database file
#
# Track frame offsets:
#	150
#	59847
#	87921
#	119523
#	151540
#	193282
#	250203
#
# Disc length: 3902 seconds
#
# Revision: 0
# Processed by: cddbd v1.5.2PL0 Copyright (c) Steve Scherf et al.
# Submitted via: CDex 1.70beta2
#
DISCID=5e0f3c07
DTITLE=Stephan North - Baby Massage
DYEAR=2001
DGENRE=New Age
TTITLE0=Lullaby
TTITLE1=Mother
TTITLE2=Safe Place
TTITLE3=Waterworld
TTITLE4=Dreamland
TTITLE5=Rocking Song
TTITLE6=Playtime
EXTD=YEAR: 2001
EXTT0=
EXTT1=
EXTT2=
EXTT3=
EXTT4=
EXTT5=
EXTT6=
PLAYORDER=
